<?xml version="1.0" encoding="UTF-8" standalone="no"?>
<!DOCTYPE svg PUBLIC "-//W3C//DTD SVG 1.1//EN"
 "http://www.w3.org/Graphics/SVG/1.1/DTD/svg11.dtd">
<!-- Generated by graphviz version 2.43.0 (0)
 -->
<!-- Title: %3 Pages: 1 -->
<svg width="475pt" height="242pt"
 viewBox="0.00 0.00 474.81 241.87" xmlns="http://www.w3.org/2000/svg" xmlns:xlink="http://www.w3.org/1999/xlink">
<g id="graph0" class="graph" transform="scale(1 1) rotate(0) translate(4 237.87)">
<title>%3</title>
<polygon fill="white" stroke="transparent" points="-4,4 -4,-237.87 470.81,-237.87 470.81,4 -4,4"/>
<!-- meilisearch -->
<g id="node1" class="node">
<title>meilisearch</title>
<ellipse fill="none" stroke="black" cx="64.34" cy="-192.87" rx="64.19" ry="18"/>
<text text-anchor="middle" x="64.34" y="-189.17" font-family="Times,serif" font-size="14.00">meilisearch</text>
</g>
<!-- Meilisearch -->
<g id="node2" class="node">
<title>Meilisearch</title>
<ellipse fill="none" stroke="black" cx="380.55" cy="-215.87" rx="64.99" ry="18"/>
<text text-anchor="middle" x="380.55" y="-212.17" font-family="Times,serif" font-size="14.00">Meilisearch</text>
</g>
<!-- meilisearch&#45;&gt;Meilisearch -->
<g id="edge1" class="edge">
<title>meilisearch&#45;&gt;Meilisearch</title>
<path fill="none" stroke="black" d="M126.67,-197.36C178.43,-201.15 252.62,-206.58 307.26,-210.58"/>
<polygon fill="black" stroke="black" points="307.34,-214.09 317.57,-211.33 307.85,-207.11 307.34,-214.09"/>
</g>
<!-- medusa -->
<g id="node3" class="node">
<title>medusa</title>
<ellipse fill="none" stroke="black" cx="211.48" cy="-169.87" rx="46.59" ry="18"/>
<text text-anchor="middle" x="211.48" y="-166.17" font-family="Times,serif" font-size="14.00">medusa</text>
</g>
<!-- meilisearch&#45;&gt;medusa -->
<g id="edge2" class="edge">
<title>meilisearch&#45;&gt;medusa</title>
<path fill="none" stroke="black" d="M120.63,-184.11C132.9,-182.17 145.86,-180.11 158.01,-178.18"/>
<polygon fill="black" stroke="black" points="158.67,-181.63 167.99,-176.6 157.57,-174.71 158.67,-181.63"/>
</g>
<!-- medusa&#45;&gt;Meilisearch -->
<g id="edge4" class="edge">
<title>medusa&#45;&gt;Meilisearch</title>
<path fill="none" stroke="black" d="M258.58,-170.35C286.03,-175.89 320.29,-185.68 345.33,-195.31"/>
<polygon fill="black" stroke="black" points="344.2,-198.62 354.78,-199.12 346.82,-192.13 344.2,-198.62"/>
</g>
<!-- medusa&#45;&gt;Meilisearch -->
<g id="edge5" class="edge">
<title>medusa&#45;&gt;Meilisearch</title>
<path fill="none" stroke="black" d="M249.98,-180.19C271.79,-186.2 299.7,-193.88 324.02,-200.58"/>
<polygon fill="black" stroke="black" points="323.28,-204.01 333.85,-203.29 325.13,-197.26 323.28,-204.01"/>
</g>
<!-- medusa&#45;&gt;Meilisearch -->
<g id="edge6" class="edge">
<title>medusa&#45;&gt;Meilisearch</title>
<path fill="none" stroke="black" d="M235.02,-185.65C253.65,-193.83 281.2,-202.69 307.26,-209.36"/>
<polygon fill="black" stroke="black" points="306.61,-212.8 317.15,-211.8 308.28,-206 306.61,-212.8"/>
</g>
<!-- docs\nURL -->
<g id="node4" class="node">
<title>docs\nURL</title>
<ellipse fill="#d1d1d1" stroke="#d1d1d1" cx="380.55" cy="-152.87" rx="34.8" ry="26.74"/>
<text text-anchor="middle" x="380.55" y="-156.67" font-family="Times,serif" font-size="14.00">docs</text>
<text text-anchor="middle" x="380.55" y="-141.67" font-family="Times,serif" font-size="14.00">URL</text>
</g>
<!-- medusa&#45;&gt;docs\nURL -->
<g id="edge3" class="edge">
<title>medusa&#45;&gt;docs\nURL</title>
<path fill="none" stroke="black" d="M256.82,-165.36C281.34,-162.86 311.71,-159.77 336.09,-157.29"/>
<polygon fill="black" stroke="black" points="336.55,-160.76 346.15,-156.27 335.84,-153.8 336.55,-160.76"/>
</g>
<!-- server_ssl -->
<g id="node5" class="node">
<title>server_ssl</title>
<ellipse fill="none" stroke="black" cx="380.55" cy="-89.87" rx="57.69" ry="18"/>
<text text-anchor="middle" x="380.55" y="-86.17" font-family="Times,serif" font-size="14.00">server_ssl</text>
</g>
<!-- medusa&#45;&gt;server_ssl -->
<g id="edge7" class="edge">
<title>medusa&#45;&gt;server_ssl</title>
<path fill="none" stroke="black" d="M233.77,-153.8C249.76,-142.31 272.55,-127.12 294.28,-116.87 304.28,-112.15 315.31,-107.97 326.03,-104.39"/>
<polygon fill="black" stroke="black" points="327.29,-107.66 335.75,-101.28 325.16,-101 327.29,-107.66"/>
</g>
<!-- randomkeygen\nURL -->
<g id="node6" class="node">
<title>randomkeygen\nURL</title>
<ellipse fill="#d1d1d1" stroke="#d1d1d1" cx="380.55" cy="-26.87" rx="86.03" ry="26.74"/>
<text text-anchor="middle" x="380.55" y="-30.67" font-family="Times,serif" font-size="14.00">randomkeygen</text>
<text text-anchor="middle" x="380.55" y="-15.67" font-family="Times,serif" font-size="14.00">URL</text>
</g>
<!-- medusa&#45;&gt;randomkeygen\nURL -->
<g id="edge8" class="edge">
<title>medusa&#45;&gt;randomkeygen\nURL</title>
<path fill="none" stroke="black" d="M222.15,-152.04C235.58,-128.72 261.92,-87.92 294.28,-62.87 299.74,-58.64 305.78,-54.82 312.04,-51.38"/>
<polygon fill="black" stroke="black" points="314.02,-54.3 321.33,-46.62 310.83,-48.07 314.02,-54.3"/>
</g>
</g>
</svg>
