<?xml version="1.0" encoding="UTF-8" standalone="no"?>
<!DOCTYPE svg PUBLIC "-//W3C//DTD SVG 1.1//EN"
 "http://www.w3.org/Graphics/SVG/1.1/DTD/svg11.dtd">
<!-- Generated by graphviz version 2.43.0 (0)
 -->
<!-- Title: %3 Pages: 1 -->
<svg width="602pt" height="852pt"
 viewBox="0.00 0.00 601.63 852.00" xmlns="http://www.w3.org/2000/svg" xmlns:xlink="http://www.w3.org/1999/xlink">
<g id="graph0" class="graph" transform="scale(1 1) rotate(0) translate(4 848)">
<title>%3</title>
<polygon fill="white" stroke="transparent" points="-4,4 -4,-848 597.63,-848 597.63,4 -4,4"/>
<!-- nginx -->
<g id="node1" class="node">
<title>nginx</title>
<ellipse fill="none" stroke="black" cx="38.06" cy="-436" rx="36.29" ry="18"/>
<text text-anchor="middle" x="38.06" y="-432.3" font-family="Times,serif" font-size="14.00">nginx</text>
</g>
<!-- nginx&#45;&gt;nginx -->
<g id="edge11" class="edge">
<title>nginx&#45;&gt;nginx</title>
<path fill="none" stroke="black" d="M9.08,-447.24C-8.52,-458.92 1.14,-472 38.06,-472 67.47,-472 79.58,-463.69 74.39,-454.41"/>
<polygon fill="black" stroke="black" points="76.64,-451.72 67.04,-447.24 71.76,-456.73 76.64,-451.72"/>
</g>
<!-- KeepInMindNotes -->
<g id="node2" class="node">
<title>KeepInMindNotes</title>
<ellipse fill="none" stroke="black" cx="239.15" cy="-826" rx="94.48" ry="18"/>
<text text-anchor="middle" x="239.15" y="-822.3" font-family="Times,serif" font-size="14.00">KeepInMindNotes</text>
</g>
<!-- nginx&#45;&gt;KeepInMindNotes -->
<g id="edge1" class="edge">
<title>nginx&#45;&gt;KeepInMindNotes</title>
<path fill="none" stroke="black" d="M40.06,-454.32C44.09,-520.97 61.3,-749.15 110.46,-799 118.51,-807.17 128.38,-813.17 139.03,-817.53"/>
<polygon fill="black" stroke="black" points="137.97,-820.87 148.57,-820.96 140.34,-814.28 137.97,-820.87"/>
</g>
<!-- certbot -->
<g id="node3" class="node">
<title>certbot</title>
<ellipse fill="none" stroke="black" cx="239.15" cy="-772" rx="44.39" ry="18"/>
<text text-anchor="middle" x="239.15" y="-768.3" font-family="Times,serif" font-size="14.00">certbot</text>
</g>
<!-- nginx&#45;&gt;certbot -->
<g id="edge2" class="edge">
<title>nginx&#45;&gt;certbot</title>
<path fill="none" stroke="black" d="M40.72,-454.05C46.57,-513.77 68.21,-703.54 110.46,-745 129.94,-764.13 159.38,-771.23 185.08,-773.39"/>
<polygon fill="black" stroke="black" points="184.89,-776.88 195.08,-774.01 185.32,-769.9 184.89,-776.88"/>
</g>
<!-- nginx&#45;congig&#45;for&#45;curl&#45;\nwithout&#45;strict&#45;checking -->
<g id="node4" class="node">
<title>nginx&#45;congig&#45;for&#45;curl&#45;\nwithout&#45;strict&#45;checking</title>
<ellipse fill="none" stroke="black" cx="239.15" cy="-709" rx="128.89" ry="26.74"/>
<text text-anchor="middle" x="239.15" y="-712.8" font-family="Times,serif" font-size="14.00">nginx&#45;congig&#45;for&#45;curl&#45;</text>
<text text-anchor="middle" x="239.15" y="-697.8" font-family="Times,serif" font-size="14.00">without&#45;strict&#45;checking</text>
</g>
<!-- nginx&#45;&gt;nginx&#45;congig&#45;for&#45;curl&#45;\nwithout&#45;strict&#45;checking -->
<g id="edge3" class="edge">
<title>nginx&#45;&gt;nginx&#45;congig&#45;for&#45;curl&#45;\nwithout&#45;strict&#45;checking</title>
<path fill="none" stroke="black" d="M39.25,-454.21C40.71,-497.46 50.48,-607.29 110.46,-668 117.71,-675.34 126.28,-681.37 135.5,-686.32"/>
<polygon fill="black" stroke="black" points="133.99,-689.48 144.51,-690.75 137.07,-683.2 133.99,-689.48"/>
</g>
<!-- acmesh -->
<g id="node5" class="node">
<title>acmesh</title>
<ellipse fill="none" stroke="black" cx="498.73" cy="-654" rx="46.29" ry="18"/>
<text text-anchor="middle" x="498.73" y="-650.3" font-family="Times,serif" font-size="14.00">acmesh</text>
</g>
<!-- nginx&#45;&gt;acmesh -->
<g id="edge4" class="edge">
<title>nginx&#45;&gt;acmesh</title>
<path fill="none" stroke="black" d="M39.35,-454.13C41.07,-494.42 51.47,-591.3 110.46,-635 161.68,-672.95 349.09,-665.15 443.14,-658.52"/>
<polygon fill="black" stroke="black" points="443.59,-661.99 453.31,-657.78 443.08,-655.01 443.59,-661.99"/>
</g>
<!-- statistici\n_imobiliare -->
<g id="node6" class="node">
<title>statistici\n_imobiliare</title>
<ellipse fill="none" stroke="black" cx="239.15" cy="-599" rx="67.35" ry="26.74"/>
<text text-anchor="middle" x="239.15" y="-602.8" font-family="Times,serif" font-size="14.00">statistici</text>
<text text-anchor="middle" x="239.15" y="-587.8" font-family="Times,serif" font-size="14.00">_imobiliare</text>
</g>
<!-- nginx&#45;&gt;statistici\n_imobiliare -->
<g id="edge5" class="edge">
<title>nginx&#45;&gt;statistici\n_imobiliare</title>
<path fill="none" stroke="black" d="M44.29,-454.11C53.23,-481.78 74.08,-534.37 110.46,-563 126.02,-575.25 145.54,-583.33 164.6,-588.67"/>
<polygon fill="black" stroke="black" points="163.95,-592.11 174.51,-591.21 165.69,-585.33 163.95,-592.11"/>
</g>
<!-- Vulnerable_service -->
<g id="node7" class="node">
<title>Vulnerable_service</title>
<ellipse fill="none" stroke="black" cx="239.15" cy="-536" rx="98.28" ry="18"/>
<text text-anchor="middle" x="239.15" y="-532.3" font-family="Times,serif" font-size="14.00">Vulnerable_service</text>
</g>
<!-- nginx&#45;&gt;Vulnerable_service -->
<g id="edge6" class="edge">
<title>nginx&#45;&gt;Vulnerable_service</title>
<path fill="none" stroke="black" d="M50.92,-453.02C63.65,-469.93 85.44,-495.26 110.46,-509 121.69,-515.17 134.2,-519.94 146.86,-523.61"/>
<polygon fill="black" stroke="black" points="146,-527 156.56,-526.22 147.81,-520.24 146,-527"/>
</g>
<!-- ngix&#45;config&#45;for&#45;http -->
<g id="node8" class="node">
<title>ngix&#45;config&#45;for&#45;http</title>
<ellipse fill="none" stroke="black" cx="239.15" cy="-482" rx="99.38" ry="18"/>
<text text-anchor="middle" x="239.15" y="-478.3" font-family="Times,serif" font-size="14.00">ngix&#45;config&#45;for&#45;http</text>
</g>
<!-- nginx&#45;&gt;ngix&#45;config&#45;for&#45;http -->
<g id="edge7" class="edge">
<title>nginx&#45;&gt;ngix&#45;config&#45;for&#45;http</title>
<path fill="none" stroke="black" d="M71.49,-443.49C97.35,-449.47 134.53,-458.06 167.21,-465.61"/>
<polygon fill="black" stroke="black" points="166.66,-469.07 177.19,-467.92 168.23,-462.25 166.66,-469.07"/>
</g>
<!-- medusa -->
<g id="node9" class="node">
<title>medusa</title>
<ellipse fill="none" stroke="black" cx="239.15" cy="-390" rx="46.59" ry="18"/>
<text text-anchor="middle" x="239.15" y="-386.3" font-family="Times,serif" font-size="14.00">medusa</text>
</g>
<!-- nginx&#45;&gt;medusa -->
<g id="edge8" class="edge">
<title>nginx&#45;&gt;medusa</title>
<path fill="none" stroke="black" d="M71.49,-428.51C103.21,-421.18 151.96,-409.91 188.56,-401.46"/>
<polygon fill="black" stroke="black" points="189.58,-404.82 198.53,-399.15 188,-397.99 189.58,-404.82"/>
</g>
<!-- server_ssl -->
<g id="node10" class="node">
<title>server_ssl</title>
<ellipse fill="none" stroke="black" cx="498.73" cy="-486" rx="57.69" ry="18"/>
<text text-anchor="middle" x="498.73" y="-482.3" font-family="Times,serif" font-size="14.00">server_ssl</text>
</g>
<!-- nginx&#45;&gt;server_ssl -->
<g id="edge9" class="edge">
<title>nginx&#45;&gt;server_ssl</title>
<path fill="none" stroke="black" d="M74.78,-436.01C135.39,-436.48 262.06,-439.45 367.84,-455 393.83,-458.82 422.26,-465.33 445.88,-471.41"/>
<polygon fill="black" stroke="black" points="445.13,-474.83 455.69,-473.97 446.9,-468.05 445.13,-474.83"/>
</g>
<!-- http_calls_to_flask -->
<g id="node11" class="node">
<title>http_calls_to_flask</title>
<ellipse fill="none" stroke="black" cx="239.15" cy="-336" rx="94.78" ry="18"/>
<text text-anchor="middle" x="239.15" y="-332.3" font-family="Times,serif" font-size="14.00">http_calls_to_flask</text>
</g>
<!-- nginx&#45;&gt;http_calls_to_flask -->
<g id="edge10" class="edge">
<title>nginx&#45;&gt;http_calls_to_flask</title>
<path fill="none" stroke="black" d="M50.92,-418.98C63.65,-402.07 85.44,-376.74 110.46,-363 122.01,-356.65 134.9,-351.8 147.94,-348.08"/>
<polygon fill="black" stroke="black" points="149.13,-351.38 157.91,-345.45 147.35,-344.62 149.13,-351.38"/>
</g>
<!-- React&#45;cu&#45;nginx -->
<g id="node12" class="node">
<title>React&#45;cu&#45;nginx</title>
<ellipse fill="none" stroke="black" cx="239.15" cy="-282" rx="79.09" ry="18"/>
<text text-anchor="middle" x="239.15" y="-278.3" font-family="Times,serif" font-size="14.00">React&#45;cu&#45;nginx</text>
</g>
<!-- nginx&#45;&gt;React&#45;cu&#45;nginx -->
<g id="edge12" class="edge">
<title>nginx&#45;&gt;React&#45;cu&#45;nginx</title>
<path fill="none" stroke="black" d="M43.92,-418.05C52.47,-390.11 72.95,-336.55 110.46,-309 122.89,-299.87 137.74,-293.68 152.85,-289.52"/>
<polygon fill="black" stroke="black" points="153.92,-292.87 162.79,-287.07 152.24,-286.07 153.92,-292.87"/>
</g>
<!-- Slowloris -->
<g id="node13" class="node">
<title>Slowloris</title>
<ellipse fill="none" stroke="black" cx="239.15" cy="-228" rx="53.89" ry="18"/>
<text text-anchor="middle" x="239.15" y="-224.3" font-family="Times,serif" font-size="14.00">Slowloris</text>
</g>
<!-- nginx&#45;&gt;Slowloris -->
<g id="edge13" class="edge">
<title>nginx&#45;&gt;Slowloris</title>
<path fill="none" stroke="black" d="M40.65,-417.88C44.9,-381.13 59.89,-297.74 110.46,-255 128.24,-239.97 152.32,-232.65 174.78,-229.28"/>
<polygon fill="black" stroke="black" points="175.47,-232.72 184.96,-228 174.6,-225.78 175.47,-232.72"/>
</g>
<!-- renew_certbot -->
<g id="node14" class="node">
<title>renew_certbot</title>
<ellipse fill="none" stroke="black" cx="239.15" cy="-174" rx="77.19" ry="18"/>
<text text-anchor="middle" x="239.15" y="-170.3" font-family="Times,serif" font-size="14.00">renew_certbot</text>
</g>
<!-- nginx&#45;&gt;renew_certbot -->
<g id="edge14" class="edge">
<title>nginx&#45;&gt;renew_certbot</title>
<path fill="none" stroke="black" d="M38.77,-417.8C39.11,-373.55 46.5,-259.64 110.46,-201 122.1,-190.32 136.87,-183.46 152.21,-179.12"/>
<polygon fill="black" stroke="black" points="153.47,-182.42 162.34,-176.62 151.79,-175.62 153.47,-182.42"/>
</g>
<!-- stockfish&#45;python -->
<g id="node15" class="node">
<title>stockfish&#45;python</title>
<ellipse fill="none" stroke="black" cx="239.15" cy="-120" rx="87.18" ry="18"/>
<text text-anchor="middle" x="239.15" y="-116.3" font-family="Times,serif" font-size="14.00">stockfish&#45;python</text>
</g>
<!-- nginx&#45;&gt;stockfish&#45;python -->
<g id="edge15" class="edge">
<title>nginx&#45;&gt;stockfish&#45;python</title>
<path fill="none" stroke="black" d="M40.63,-417.93C46.66,-359.19 69.95,-177.15 110.46,-138 120.35,-128.43 132.74,-121.88 145.89,-117.58"/>
<polygon fill="black" stroke="black" points="146.9,-120.93 155.57,-114.84 144.99,-114.2 146.9,-120.93"/>
</g>
<!-- statistici\n_imobiliare&#45;&gt;acmesh -->
<g id="edge17" class="edge">
<title>statistici\n_imobiliare&#45;&gt;acmesh</title>
<path fill="none" stroke="black" d="M298.92,-611.55C343.87,-621.15 405.17,-634.24 447.77,-643.33"/>
<polygon fill="black" stroke="black" points="447.13,-646.77 457.64,-645.44 448.59,-639.93 447.13,-646.77"/>
</g>
<!-- Research_licitatii -->
<g id="node16" class="node">
<title>Research_licitatii</title>
<ellipse fill="none" stroke="black" cx="498.73" cy="-600" rx="90.98" ry="18"/>
<text text-anchor="middle" x="498.73" y="-596.3" font-family="Times,serif" font-size="14.00">Research_licitatii</text>
</g>
<!-- statistici\n_imobiliare&#45;&gt;Research_licitatii -->
<g id="edge16" class="edge">
<title>statistici\n_imobiliare&#45;&gt;Research_licitatii</title>
<path fill="none" stroke="black" d="M306.48,-599.26C334.07,-599.36 366.71,-599.49 397.13,-599.61"/>
<polygon fill="black" stroke="black" points="397.34,-603.11 407.35,-599.65 397.37,-596.11 397.34,-603.11"/>
</g>
<!-- Licitatii_raportate -->
<g id="node17" class="node">
<title>Licitatii_raportate</title>
<ellipse fill="none" stroke="black" cx="498.73" cy="-546" rx="94.78" ry="18"/>
<text text-anchor="middle" x="498.73" y="-542.3" font-family="Times,serif" font-size="14.00">Licitatii_raportate</text>
</g>
<!-- statistici\n_imobiliare&#45;&gt;Licitatii_raportate -->
<g id="edge18" class="edge">
<title>statistici\n_imobiliare&#45;&gt;Licitatii_raportate</title>
<path fill="none" stroke="black" d="M299.24,-586.84C336.21,-579.23 384.15,-569.37 423.65,-561.24"/>
<polygon fill="black" stroke="black" points="424.41,-564.66 433.5,-559.22 423,-557.8 424.41,-564.66"/>
</g>
<!-- medusa&#45;&gt;server_ssl -->
<g id="edge20" class="edge">
<title>medusa&#45;&gt;server_ssl</title>
<path fill="none" stroke="black" d="M284.38,-394.95C310.07,-399.28 342.29,-407.29 367.84,-422 387.73,-433.45 384.16,-447.21 403.84,-459 414.52,-465.39 426.79,-470.34 438.87,-474.15"/>
<polygon fill="black" stroke="black" points="437.89,-477.51 448.47,-476.96 439.86,-470.79 437.89,-477.51"/>
</g>
<!-- docs\nURL -->
<g id="node18" class="node">
<title>docs\nURL</title>
<ellipse fill="#d1d1d1" stroke="#d1d1d1" cx="498.73" cy="-423" rx="34.8" ry="26.74"/>
<text text-anchor="middle" x="498.73" y="-426.8" font-family="Times,serif" font-size="14.00">docs</text>
<text text-anchor="middle" x="498.73" y="-411.8" font-family="Times,serif" font-size="14.00">URL</text>
</g>
<!-- medusa&#45;&gt;docs\nURL -->
<g id="edge19" class="edge">
<title>medusa&#45;&gt;docs\nURL</title>
<path fill="none" stroke="black" d="M283.84,-395.6C331.45,-401.7 407.13,-411.39 454.54,-417.47"/>
<polygon fill="black" stroke="black" points="454.13,-420.94 464.5,-418.74 455.02,-414 454.13,-420.94"/>
</g>
<!-- randomkeygen\nURL -->
<g id="node19" class="node">
<title>randomkeygen\nURL</title>
<ellipse fill="#d1d1d1" stroke="#d1d1d1" cx="498.73" cy="-351" rx="86.03" ry="26.74"/>
<text text-anchor="middle" x="498.73" y="-354.8" font-family="Times,serif" font-size="14.00">randomkeygen</text>
<text text-anchor="middle" x="498.73" y="-339.8" font-family="Times,serif" font-size="14.00">URL</text>
</g>
<!-- medusa&#45;&gt;randomkeygen\nURL -->
<g id="edge21" class="edge">
<title>medusa&#45;&gt;randomkeygen\nURL</title>
<path fill="none" stroke="black" d="M282.97,-383.52C317.75,-378.25 367.9,-370.66 411,-364.13"/>
<polygon fill="black" stroke="black" points="411.57,-367.59 420.94,-362.63 410.52,-360.66 411.57,-367.59"/>
</g>
<!-- Install -->
<g id="node20" class="node">
<title>Install</title>
<ellipse fill="none" stroke="black" cx="498.73" cy="-288" rx="40.09" ry="18"/>
<text text-anchor="middle" x="498.73" y="-284.3" font-family="Times,serif" font-size="14.00">Install</text>
</g>
<!-- Slowloris&#45;&gt;Install -->
<g id="edge22" class="edge">
<title>Slowloris&#45;&gt;Install</title>
<path fill="none" stroke="black" d="M285.75,-237.18C310.16,-242.2 340.7,-248.68 367.84,-255 396.52,-261.67 428.59,-269.81 453.69,-276.34"/>
<polygon fill="black" stroke="black" points="453.08,-279.8 463.64,-278.94 454.85,-273.02 453.08,-279.8"/>
</g>
<!-- nmap_script -->
<g id="node21" class="node">
<title>nmap_script</title>
<ellipse fill="none" stroke="black" cx="498.73" cy="-234" rx="67.69" ry="18"/>
<text text-anchor="middle" x="498.73" y="-230.3" font-family="Times,serif" font-size="14.00">nmap_script</text>
</g>
<!-- Slowloris&#45;&gt;nmap_script -->
<g id="edge23" class="edge">
<title>Slowloris&#45;&gt;nmap_script</title>
<path fill="none" stroke="black" d="M293.21,-229.24C330.08,-230.09 379.79,-231.25 420.98,-232.21"/>
<polygon fill="black" stroke="black" points="420.9,-235.71 430.98,-232.45 421.06,-228.71 420.9,-235.71"/>
</g>
<!-- Incercari -->
<g id="node22" class="node">
<title>Incercari</title>
<ellipse fill="none" stroke="black" cx="498.73" cy="-180" rx="51.99" ry="18"/>
<text text-anchor="middle" x="498.73" y="-176.3" font-family="Times,serif" font-size="14.00">Incercari</text>
</g>
<!-- Slowloris&#45;&gt;Incercari -->
<g id="edge24" class="edge">
<title>Slowloris&#45;&gt;Incercari</title>
<path fill="none" stroke="black" d="M286.5,-219.36C330.35,-211.19 396.21,-198.92 442.71,-190.25"/>
<polygon fill="black" stroke="black" points="443.43,-193.68 452.62,-188.41 442.15,-186.8 443.43,-193.68"/>
</g>
<!-- check_server -->
<g id="node23" class="node">
<title>check_server</title>
<ellipse fill="none" stroke="black" cx="498.73" cy="-126" rx="71.49" ry="18"/>
<text text-anchor="middle" x="498.73" y="-122.3" font-family="Times,serif" font-size="14.00">check_server</text>
</g>
<!-- Slowloris&#45;&gt;check_server -->
<g id="edge25" class="edge">
<title>Slowloris&#45;&gt;check_server</title>
<path fill="none" stroke="black" d="M292.75,-225.33C317.14,-222.06 345.59,-215.2 367.84,-201 390.32,-186.66 381.89,-168.14 403.84,-153 411.82,-147.5 420.92,-143.11 430.23,-139.6"/>
<polygon fill="black" stroke="black" points="431.66,-142.82 439.99,-136.27 429.39,-136.19 431.66,-142.82"/>
</g>
<!-- webroot_map -->
<g id="node24" class="node">
<title>webroot_map</title>
<ellipse fill="none" stroke="black" cx="498.73" cy="-72" rx="73.39" ry="18"/>
<text text-anchor="middle" x="498.73" y="-68.3" font-family="Times,serif" font-size="14.00">webroot_map</text>
</g>
<!-- renew_certbot&#45;&gt;webroot_map -->
<g id="edge26" class="edge">
<title>renew_certbot&#45;&gt;webroot_map</title>
<path fill="none" stroke="black" d="M312.23,-168.03C331.38,-164.04 351.32,-157.54 367.84,-147 390.32,-132.66 381.89,-114.14 403.84,-99 411.61,-93.64 420.45,-89.34 429.51,-85.88"/>
<polygon fill="black" stroke="black" points="430.71,-89.17 439,-82.58 428.41,-82.56 430.71,-89.17"/>
</g>
<!-- stockfish&#45;python&#45;&gt;nginx -->
<g id="edge27" class="edge">
<title>stockfish&#45;python&#45;&gt;nginx</title>
<path fill="none" stroke="black" d="M166.2,-129.86C145.93,-134.03 125.36,-141.59 110.46,-156 73.84,-191.4 51.28,-343.6 42.84,-407.66"/>
<polygon fill="black" stroke="black" points="39.34,-407.48 41.52,-417.85 46.28,-408.38 39.34,-407.48"/>
</g>
<!-- pyenv -->
<g id="node25" class="node">
<title>pyenv</title>
<ellipse fill="none" stroke="black" cx="498.73" cy="-18" rx="38.19" ry="18"/>
<text text-anchor="middle" x="498.73" y="-14.3" font-family="Times,serif" font-size="14.00">pyenv</text>
</g>
<!-- stockfish&#45;python&#45;&gt;pyenv -->
<g id="edge28" class="edge">
<title>stockfish&#45;python&#45;&gt;pyenv</title>
<path fill="none" stroke="black" d="M272.77,-103.29C305.38,-87.02 357.24,-62.27 403.84,-45 420.17,-38.95 438.51,-33.41 454.62,-28.94"/>
<polygon fill="black" stroke="black" points="455.59,-32.31 464.32,-26.3 453.75,-25.55 455.59,-32.31"/>
</g>
</g>
</svg>
