<?xml version="1.0" encoding="UTF-8" standalone="no"?>
<!DOCTYPE svg PUBLIC "-//W3C//DTD SVG 1.1//EN"
 "http://www.w3.org/Graphics/SVG/1.1/DTD/svg11.dtd">
<!-- Generated by graphviz version 2.43.0 (0)
 -->
<!-- Title: %3 Pages: 1 -->
<svg width="1018pt" height="1000pt"
 viewBox="0.00 0.00 1017.61 999.87" xmlns="http://www.w3.org/2000/svg" xmlns:xlink="http://www.w3.org/1999/xlink">
<g id="graph0" class="graph" transform="scale(1 1) rotate(0) translate(4 995.87)">
<title>%3</title>
<polygon fill="white" stroke="transparent" points="-4,4 -4,-995.87 1013.61,-995.87 1013.61,4 -4,4"/>
<!-- nginx -->
<g id="node1" class="node">
<title>nginx</title>
<ellipse fill="none" stroke="black" cx="312.88" cy="-433.87" rx="36.29" ry="18"/>
<text text-anchor="middle" x="312.88" y="-430.17" font-family="Times,serif" font-size="14.00">nginx</text>
</g>
<!-- nginx&#45;&gt;nginx -->
<g id="edge11" class="edge">
<title>nginx&#45;&gt;nginx</title>
<path fill="none" stroke="black" d="M282.38,-444.01C260.05,-455.94 270.22,-469.87 312.88,-469.87 348.53,-469.87 361.49,-460.14 351.73,-449.97"/>
<polygon fill="black" stroke="black" points="353.54,-446.96 343.37,-444.01 349.48,-452.66 353.54,-446.96"/>
</g>
<!-- KeepInMind
Notes -->
<g id="node2" class="node">
<title>KeepInMind
Notes</title>
<ellipse fill="none" stroke="black" cx="633.29" cy="-802.87" rx="72.66" ry="26.74"/>
<text text-anchor="middle" x="633.29" y="-806.67" font-family="Times,serif" font-size="14.00">KeepInMind</text>
<text text-anchor="middle" x="633.29" y="-791.67" font-family="Times,serif" font-size="14.00">Notes</text>
</g>
<!-- nginx&#45;&gt;KeepInMind
Notes -->
<g id="edge1" class="edge">
<title>nginx&#45;&gt;KeepInMind
Notes</title>
<path fill="none" stroke="black" d="M315.55,-452.14C321.78,-508.75 348.84,-682.49 451.57,-766.87 478.9,-789.32 516.33,-799.1 550.04,-802.95"/>
<polygon fill="black" stroke="black" points="550.08,-806.47 560.37,-803.97 550.76,-799.51 550.08,-806.47"/>
</g>
<!-- certbot -->
<g id="node3" class="node">
<title>certbot</title>
<ellipse fill="none" stroke="black" cx="633.29" cy="-739.87" rx="44.39" ry="18"/>
<text text-anchor="middle" x="633.29" y="-736.17" font-family="Times,serif" font-size="14.00">certbot</text>
</g>
<!-- nginx&#45;&gt;certbot -->
<g id="edge2" class="edge">
<title>nginx&#45;&gt;certbot</title>
<path fill="none" stroke="black" d="M316.87,-451.9C326.31,-502.48 360.37,-646.33 451.57,-712.87 488.5,-739.82 541.13,-744.98 580.07,-744.35"/>
<polygon fill="black" stroke="black" points="580.27,-747.84 590.17,-744.05 580.07,-740.85 580.27,-747.84"/>
</g>
<!-- nginx&#45;cong
ig&#45;for&#45;curl&#45;without&#45;strict&#45;checking -->
<g id="node4" class="node">
<title>nginx&#45;cong
ig&#45;for&#45;curl&#45;without&#45;strict&#45;checking</title>
<ellipse fill="none" stroke="black" cx="633.29" cy="-676.87" rx="181.95" ry="26.74"/>
<text text-anchor="middle" x="633.29" y="-680.67" font-family="Times,serif" font-size="14.00">nginx&#45;cong</text>
<text text-anchor="middle" x="633.29" y="-665.67" font-family="Times,serif" font-size="14.00">ig&#45;for&#45;curl&#45;without&#45;strict&#45;checking</text>
</g>
<!-- nginx&#45;&gt;nginx&#45;cong
ig&#45;for&#45;curl&#45;without&#45;strict&#45;checking -->
<g id="edge3" class="edge">
<title>nginx&#45;&gt;nginx&#45;cong
ig&#45;for&#45;curl&#45;without&#45;strict&#45;checking</title>
<path fill="none" stroke="black" d="M320.23,-451.74C335.71,-492.51 379.49,-592.59 451.57,-640.87 460.72,-647 470.69,-652.14 481.08,-656.43"/>
<polygon fill="black" stroke="black" points="480.14,-659.82 490.73,-660.15 482.66,-653.29 480.14,-659.82"/>
</g>
<!-- acmesh -->
<g id="node5" class="node">
<title>acmesh</title>
<ellipse fill="none" stroke="black" cx="633.29" cy="-865.87" rx="46.29" ry="18"/>
<text text-anchor="middle" x="633.29" y="-862.17" font-family="Times,serif" font-size="14.00">acmesh</text>
</g>
<!-- nginx&#45;&gt;acmesh -->
<g id="edge4" class="edge">
<title>nginx&#45;&gt;acmesh</title>
<path fill="none" stroke="black" d="M313.88,-452.01C314.94,-516.4 327.86,-735.58 451.57,-838.87 486.55,-868.08 539.19,-873.01 578.64,-871.71"/>
<polygon fill="black" stroke="black" points="579.06,-875.19 588.88,-871.23 578.73,-868.2 579.06,-875.19"/>
</g>
<!-- statistici
_imobiliare -->
<g id="node6" class="node">
<title>statistici
_imobiliare</title>
<ellipse fill="none" stroke="black" cx="633.29" cy="-604.87" rx="67.35" ry="26.74"/>
<text text-anchor="middle" x="633.29" y="-608.67" font-family="Times,serif" font-size="14.00">statistici</text>
<text text-anchor="middle" x="633.29" y="-593.67" font-family="Times,serif" font-size="14.00">_imobiliare</text>
</g>
<!-- nginx&#45;&gt;statistici
_imobiliare -->
<g id="edge5" class="edge">
<title>nginx&#45;&gt;statistici
_imobiliare</title>
<path fill="none" stroke="black" d="M326.08,-451.16C347.75,-480.44 395.92,-539.47 451.57,-568.87 483.61,-585.8 522.68,-594.8 556.29,-599.57"/>
<polygon fill="black" stroke="black" points="556.16,-603.08 566.53,-600.91 557.07,-596.14 556.16,-603.08"/>
</g>
<!-- Vulnerable
_service -->
<g id="node7" class="node">
<title>Vulnerable
_service</title>
<ellipse fill="none" stroke="black" cx="633.29" cy="-532.87" rx="65.52" ry="26.74"/>
<text text-anchor="middle" x="633.29" y="-536.67" font-family="Times,serif" font-size="14.00">Vulnerable</text>
<text text-anchor="middle" x="633.29" y="-521.67" font-family="Times,serif" font-size="14.00">_service</text>
</g>
<!-- nginx&#45;&gt;Vulnerable
_service -->
<g id="edge6" class="edge">
<title>nginx&#45;&gt;Vulnerable
_service</title>
<path fill="none" stroke="black" d="M338.06,-447.03C365.03,-461.21 410.3,-483.52 451.57,-496.87 486.74,-508.25 526.98,-516.69 560.55,-522.53"/>
<polygon fill="black" stroke="black" points="560.29,-526.03 570.74,-524.25 561.46,-519.13 560.29,-526.03"/>
</g>
<!-- ngix&#45;confi
g&#45;for&#45;http -->
<g id="node8" class="node">
<title>ngix&#45;confi
g&#45;for&#45;http</title>
<ellipse fill="none" stroke="black" cx="633.29" cy="-460.87" rx="60.21" ry="26.74"/>
<text text-anchor="middle" x="633.29" y="-464.67" font-family="Times,serif" font-size="14.00">ngix&#45;confi</text>
<text text-anchor="middle" x="633.29" y="-449.67" font-family="Times,serif" font-size="14.00">g&#45;for&#45;http</text>
</g>
<!-- nginx&#45;&gt;ngix&#45;confi
g&#45;for&#45;http -->
<g id="edge7" class="edge">
<title>nginx&#45;&gt;ngix&#45;confi
g&#45;for&#45;http</title>
<path fill="none" stroke="black" d="M348.86,-436.84C400.39,-441.21 497.7,-449.46 563.76,-455.06"/>
<polygon fill="black" stroke="black" points="563.83,-458.58 574.09,-455.93 564.42,-451.6 563.83,-458.58"/>
</g>
<!-- medusa -->
<g id="node9" class="node">
<title>medusa</title>
<ellipse fill="none" stroke="black" cx="633.29" cy="-359.87" rx="46.59" ry="18"/>
<text text-anchor="middle" x="633.29" y="-356.17" font-family="Times,serif" font-size="14.00">medusa</text>
</g>
<!-- nginx&#45;&gt;medusa -->
<g id="edge8" class="edge">
<title>nginx&#45;&gt;medusa</title>
<path fill="none" stroke="black" d="M346.27,-426.46C366.41,-421.55 392.73,-414.62 415.57,-406.87 431.98,-401.3 434.93,-396.74 451.57,-391.87 493.17,-379.68 541.61,-371.41 577.86,-366.33"/>
<polygon fill="black" stroke="black" points="578.78,-369.74 588.22,-364.92 577.84,-362.8 578.78,-369.74"/>
</g>
<!-- server_ssl -->
<g id="node10" class="node">
<title>server_ssl</title>
<ellipse fill="none" stroke="black" cx="930.31" cy="-409.87" rx="57.69" ry="18"/>
<text text-anchor="middle" x="930.31" y="-406.17" font-family="Times,serif" font-size="14.00">server_ssl</text>
</g>
<!-- nginx&#45;&gt;server_ssl -->
<g id="edge9" class="edge">
<title>nginx&#45;&gt;server_ssl</title>
<path fill="none" stroke="black" d="M348.94,-431.25C376.76,-429.25 416.63,-426.56 451.57,-424.87 597.97,-417.79 769.77,-413.34 862.24,-411.26"/>
<polygon fill="black" stroke="black" points="862.37,-414.76 872.29,-411.04 862.22,-407.76 862.37,-414.76"/>
</g>
<!-- http_calls
_to_flask -->
<g id="node11" class="node">
<title>http_calls
_to_flask</title>
<ellipse fill="none" stroke="black" cx="633.29" cy="-296.87" rx="60.62" ry="26.74"/>
<text text-anchor="middle" x="633.29" y="-300.67" font-family="Times,serif" font-size="14.00">http_calls</text>
<text text-anchor="middle" x="633.29" y="-285.67" font-family="Times,serif" font-size="14.00">_to_flask</text>
</g>
<!-- nginx&#45;&gt;http_calls
_to_flask -->
<g id="edge10" class="edge">
<title>nginx&#45;&gt;http_calls
_to_flask</title>
<path fill="none" stroke="black" d="M349.24,-431.79C370.5,-428.89 396.95,-422.2 415.57,-406.87 443.8,-383.62 422.61,-355.22 451.57,-332.87 482.82,-308.75 525.93,-299.52 562.21,-296.43"/>
<polygon fill="black" stroke="black" points="562.52,-299.91 572.25,-295.71 562.03,-292.93 562.52,-299.91"/>
</g>
<!-- React&#45;cu&#45;n
ginx -->
<g id="node12" class="node">
<title>React&#45;cu&#45;n
ginx</title>
<ellipse fill="none" stroke="black" cx="633.29" cy="-224.87" rx="65.11" ry="26.74"/>
<text text-anchor="middle" x="633.29" y="-228.67" font-family="Times,serif" font-size="14.00">React&#45;cu&#45;n</text>
<text text-anchor="middle" x="633.29" y="-213.67" font-family="Times,serif" font-size="14.00">ginx</text>
</g>
<!-- nginx&#45;&gt;React&#45;cu&#45;n
ginx -->
<g id="edge12" class="edge">
<title>nginx&#45;&gt;React&#45;cu&#45;n
ginx</title>
<path fill="none" stroke="black" d="M349.46,-433.22C371.36,-430.91 398.41,-424.33 415.57,-406.87 462.4,-359.19 403.25,-307.05 451.57,-260.87 479.68,-234 521.85,-224.53 558.38,-221.99"/>
<polygon fill="black" stroke="black" points="558.72,-225.48 568.52,-221.45 558.35,-218.49 558.72,-225.48"/>
</g>
<!-- Slowloris -->
<g id="node13" class="node">
<title>Slowloris</title>
<ellipse fill="none" stroke="black" cx="633.29" cy="-161.87" rx="53.89" ry="18"/>
<text text-anchor="middle" x="633.29" y="-158.17" font-family="Times,serif" font-size="14.00">Slowloris</text>
</g>
<!-- nginx&#45;&gt;Slowloris -->
<g id="edge13" class="edge">
<title>nginx&#45;&gt;Slowloris</title>
<path fill="none" stroke="black" d="M349.44,-433.71C371.61,-431.63 398.98,-425.12 415.57,-406.87 481.6,-334.18 381.6,-257.77 451.57,-188.87 482.97,-157.95 533.5,-152.64 573.16,-154.24"/>
<polygon fill="black" stroke="black" points="573.07,-157.74 583.25,-154.81 573.46,-150.75 573.07,-157.74"/>
</g>
<!-- renew_cert
bot -->
<g id="node14" class="node">
<title>renew_cert
bot</title>
<ellipse fill="none" stroke="black" cx="633.29" cy="-98.87" rx="67.76" ry="26.74"/>
<text text-anchor="middle" x="633.29" y="-102.67" font-family="Times,serif" font-size="14.00">renew_cert</text>
<text text-anchor="middle" x="633.29" y="-87.67" font-family="Times,serif" font-size="14.00">bot</text>
</g>
<!-- nginx&#45;&gt;renew_cert
bot -->
<g id="edge14" class="edge">
<title>nginx&#45;&gt;renew_cert
bot</title>
<path fill="none" stroke="black" d="M349.64,-433.89C371.89,-431.88 399.28,-425.39 415.57,-406.87 496.1,-315.31 368.19,-223.85 451.57,-134.87 477.86,-106.81 519.3,-97.16 555.88,-94.82"/>
<polygon fill="black" stroke="black" points="556.22,-98.31 566.05,-94.35 555.89,-91.32 556.22,-98.31"/>
</g>
<!-- stockfish&#45;
python -->
<g id="node15" class="node">
<title>stockfish&#45;
python</title>
<ellipse fill="none" stroke="black" cx="633.29" cy="-26.87" rx="59.29" ry="26.74"/>
<text text-anchor="middle" x="633.29" y="-30.67" font-family="Times,serif" font-size="14.00">stockfish&#45;</text>
<text text-anchor="middle" x="633.29" y="-15.67" font-family="Times,serif" font-size="14.00">python</text>
</g>
<!-- nginx&#45;&gt;stockfish&#45;
python -->
<g id="edge15" class="edge">
<title>nginx&#45;&gt;stockfish&#45;
python</title>
<path fill="none" stroke="black" d="M349.31,-434.08C371.72,-432.19 399.42,-425.75 415.57,-406.87 515.51,-290.07 348,-176.47 451.57,-62.87 479.56,-32.16 525.68,-23.35 564.31,-22.11"/>
<polygon fill="black" stroke="black" points="564.53,-25.61 574.48,-21.96 564.42,-18.61 564.53,-25.61"/>
</g>
<!-- medusa&#45;&gt;server_ssl -->
<g id="edge20" class="edge">
<title>medusa&#45;&gt;server_ssl</title>
<path fill="none" stroke="black" d="M676.56,-367.03C727.06,-375.59 811.91,-389.97 869.21,-399.68"/>
<polygon fill="black" stroke="black" points="868.78,-403.16 879.22,-401.38 869.95,-396.26 868.78,-403.16"/>
</g>
<!-- docs -->
<g id="node19" class="node">
<title>docs</title>
<ellipse fill="none" stroke="black" cx="930.31" cy="-355.87" rx="31.7" ry="18"/>
<text text-anchor="middle" x="930.31" y="-352.17" font-family="Times,serif" font-size="14.00">docs</text>
</g>
<!-- medusa&#45;&gt;docs -->
<g id="edge19" class="edge">
<title>medusa&#45;&gt;docs</title>
<path fill="none" stroke="black" d="M680.07,-359.25C737.08,-358.48 833.64,-357.17 888.33,-356.43"/>
<polygon fill="black" stroke="black" points="888.41,-359.93 898.36,-356.29 888.32,-352.93 888.41,-359.93"/>
</g>
<!-- randomkeygen -->
<g id="node20" class="node">
<title>randomkeygen</title>
<ellipse fill="none" stroke="black" cx="930.31" cy="-301.87" rx="79.09" ry="18"/>
<text text-anchor="middle" x="930.31" y="-298.17" font-family="Times,serif" font-size="14.00">randomkeygen</text>
</g>
<!-- medusa&#45;&gt;randomkeygen -->
<g id="edge21" class="edge">
<title>medusa&#45;&gt;randomkeygen</title>
<path fill="none" stroke="black" d="M678.37,-354.74C715.12,-350.12 768.75,-342.57 815.02,-332.87 833.61,-328.97 853.67,-323.85 871.71,-318.9"/>
<polygon fill="black" stroke="black" points="872.82,-322.22 881.51,-316.17 870.94,-315.48 872.82,-322.22"/>
</g>
<!-- Install -->
<g id="node21" class="node">
<title>Install</title>
<ellipse fill="none" stroke="black" cx="930.31" cy="-231.87" rx="40.09" ry="18"/>
<text text-anchor="middle" x="930.31" y="-228.17" font-family="Times,serif" font-size="14.00">Install</text>
</g>
<!-- Slowloris&#45;&gt;Install -->
<g id="edge22" class="edge">
<title>Slowloris&#45;&gt;Install</title>
<path fill="none" stroke="black" d="M686.11,-165.87C722.68,-169.6 772.53,-176.5 815.02,-188.87 831.83,-193.76 834.73,-198.45 851.02,-204.87 862.73,-209.48 875.58,-214.09 887.42,-218.17"/>
<polygon fill="black" stroke="black" points="886.49,-221.55 897.09,-221.45 888.74,-214.92 886.49,-221.55"/>
</g>
<!-- nmap_script -->
<g id="node22" class="node">
<title>nmap_script</title>
<ellipse fill="none" stroke="black" cx="930.31" cy="-177.87" rx="67.69" ry="18"/>
<text text-anchor="middle" x="930.31" y="-174.17" font-family="Times,serif" font-size="14.00">nmap_script</text>
</g>
<!-- Slowloris&#45;&gt;nmap_script -->
<g id="edge23" class="edge">
<title>Slowloris&#45;&gt;nmap_script</title>
<path fill="none" stroke="black" d="M686.7,-164.71C733.11,-167.23 801.42,-170.93 853.75,-173.77"/>
<polygon fill="black" stroke="black" points="853.81,-177.28 863.99,-174.33 854.19,-170.29 853.81,-177.28"/>
</g>
<!-- Incercari -->
<g id="node23" class="node">
<title>Incercari</title>
<ellipse fill="none" stroke="black" cx="930.31" cy="-123.87" rx="51.99" ry="18"/>
<text text-anchor="middle" x="930.31" y="-120.17" font-family="Times,serif" font-size="14.00">Incercari</text>
</g>
<!-- Slowloris&#45;&gt;Incercari -->
<g id="edge24" class="edge">
<title>Slowloris&#45;&gt;Incercari</title>
<path fill="none" stroke="black" d="M684.01,-155.47C735.69,-148.81 816.52,-138.4 871.14,-131.36"/>
<polygon fill="black" stroke="black" points="871.88,-134.8 881.36,-130.05 870.99,-127.85 871.88,-134.8"/>
</g>
<!-- check_server -->
<g id="node24" class="node">
<title>check_server</title>
<ellipse fill="none" stroke="black" cx="930.31" cy="-69.87" rx="71.49" ry="18"/>
<text text-anchor="middle" x="930.31" y="-66.17" font-family="Times,serif" font-size="14.00">check_server</text>
</g>
<!-- Slowloris&#45;&gt;check_server -->
<g id="edge25" class="edge">
<title>Slowloris&#45;&gt;check_server</title>
<path fill="none" stroke="black" d="M687.32,-162.92C724.91,-161.59 775.49,-155.47 815.02,-134.87 835.65,-124.12 831.46,-109.47 851.02,-96.87 857.09,-92.96 863.78,-89.55 870.63,-86.59"/>
<polygon fill="black" stroke="black" points="872.04,-89.79 880.01,-82.82 869.43,-83.3 872.04,-89.79"/>
</g>
<!-- statistici_imobiliare -->
<g id="node16" class="node">
<title>statistici_imobiliare</title>
<ellipse fill="none" stroke="black" cx="312.88" cy="-919.87" rx="102.88" ry="18"/>
<text text-anchor="middle" x="312.88" y="-916.17" font-family="Times,serif" font-size="14.00">statistici_imobiliare</text>
</g>
<!-- statistici_imobiliare&#45;&gt;acmesh -->
<g id="edge17" class="edge">
<title>statistici_imobiliare&#45;&gt;acmesh</title>
<path fill="none" stroke="black" d="M380.3,-906.21C402.87,-901.74 428.28,-896.89 451.57,-892.87 494.39,-885.48 543.13,-878.27 579.19,-873.16"/>
<polygon fill="black" stroke="black" points="580.07,-876.57 589.48,-871.71 579.09,-869.64 580.07,-876.57"/>
</g>
<!-- Research_licitatii -->
<g id="node17" class="node">
<title>Research_licitatii</title>
<ellipse fill="none" stroke="black" cx="633.29" cy="-973.87" rx="90.98" ry="18"/>
<text text-anchor="middle" x="633.29" y="-970.17" font-family="Times,serif" font-size="14.00">Research_licitatii</text>
</g>
<!-- statistici_imobiliare&#45;&gt;Research_licitatii -->
<g id="edge16" class="edge">
<title>statistici_imobiliare&#45;&gt;Research_licitatii</title>
<path fill="none" stroke="black" d="M380.3,-933.53C402.87,-938 428.28,-942.85 451.57,-946.87 483.02,-952.3 517.67,-957.63 548.15,-962.11"/>
<polygon fill="black" stroke="black" points="547.91,-965.61 558.31,-963.59 548.92,-958.68 547.91,-965.61"/>
</g>
<!-- Licitatii_raportate -->
<g id="node18" class="node">
<title>Licitatii_raportate</title>
<ellipse fill="none" stroke="black" cx="633.29" cy="-919.87" rx="94.78" ry="18"/>
<text text-anchor="middle" x="633.29" y="-916.17" font-family="Times,serif" font-size="14.00">Licitatii_raportate</text>
</g>
<!-- statistici_imobiliare&#45;&gt;Licitatii_raportate -->
<g id="edge18" class="edge">
<title>statistici_imobiliare&#45;&gt;Licitatii_raportate</title>
<path fill="none" stroke="black" d="M415.94,-919.87C451.85,-919.87 492.24,-919.87 528.31,-919.87"/>
<polygon fill="black" stroke="black" points="528.37,-923.37 538.37,-919.87 528.37,-916.37 528.37,-923.37"/>
</g>
<!-- renew_certbot -->
<g id="node25" class="node">
<title>renew_certbot</title>
<ellipse fill="none" stroke="black" cx="87.09" cy="-973.87" rx="77.19" ry="18"/>
<text text-anchor="middle" x="87.09" y="-970.17" font-family="Times,serif" font-size="14.00">renew_certbot</text>
</g>
<!-- webroot_map -->
<g id="node26" class="node">
<title>webroot_map</title>
<ellipse fill="none" stroke="black" cx="312.88" cy="-973.87" rx="73.39" ry="18"/>
<text text-anchor="middle" x="312.88" y="-970.17" font-family="Times,serif" font-size="14.00">webroot_map</text>
</g>
<!-- renew_certbot&#45;&gt;webroot_map -->
<g id="edge26" class="edge">
<title>renew_certbot&#45;&gt;webroot_map</title>
<path fill="none" stroke="black" d="M164.48,-973.87C185.26,-973.87 207.87,-973.87 228.99,-973.87"/>
<polygon fill="black" stroke="black" points="229.23,-977.37 239.23,-973.87 229.23,-970.37 229.23,-977.37"/>
</g>
<!-- stockfish&#45;python -->
<g id="node27" class="node">
<title>stockfish&#45;python</title>
<ellipse fill="none" stroke="black" cx="87.09" cy="-406.87" rx="87.18" ry="18"/>
<text text-anchor="middle" x="87.09" y="-403.17" font-family="Times,serif" font-size="14.00">stockfish&#45;python</text>
</g>
<!-- stockfish&#45;python&#45;&gt;nginx -->
<g id="edge27" class="edge">
<title>stockfish&#45;python&#45;&gt;nginx</title>
<path fill="none" stroke="black" d="M162.61,-415.86C197.3,-420.05 237.4,-424.88 267.3,-428.49"/>
<polygon fill="black" stroke="black" points="267.08,-431.99 277.42,-429.71 267.92,-425.04 267.08,-431.99"/>
</g>
<!-- pyenv -->
<g id="node28" class="node">
<title>pyenv</title>
<ellipse fill="none" stroke="black" cx="312.88" cy="-379.87" rx="38.19" ry="18"/>
<text text-anchor="middle" x="312.88" y="-376.17" font-family="Times,serif" font-size="14.00">pyenv</text>
</g>
<!-- stockfish&#45;python&#45;&gt;pyenv -->
<g id="edge28" class="edge">
<title>stockfish&#45;python&#45;&gt;pyenv</title>
<path fill="none" stroke="black" d="M162.61,-397.88C196.62,-393.78 235.83,-389.05 265.52,-385.46"/>
<polygon fill="black" stroke="black" points="266.1,-388.92 275.61,-384.25 265.26,-381.97 266.1,-388.92"/>
</g>
</g>
</svg>
