<?xml version="1.0" encoding="UTF-8" standalone="no"?>
<!DOCTYPE svg PUBLIC "-//W3C//DTD SVG 1.1//EN"
 "http://www.w3.org/Graphics/SVG/1.1/DTD/svg11.dtd">
<!-- Generated by graphviz version 2.43.0 (0)
 -->
<!-- Title: %3 Pages: 1 -->
<svg width="317pt" height="62pt"
 viewBox="0.00 0.00 316.98 62.00" xmlns="http://www.w3.org/2000/svg" xmlns:xlink="http://www.w3.org/1999/xlink">
<g id="graph0" class="graph" transform="scale(1 1) rotate(0) translate(4 58)">
<title>%3</title>
<polygon fill="white" stroke="transparent" points="-4,4 -4,-58 312.98,-58 312.98,4 -4,4"/>
<!-- xrandr -->
<g id="node1" class="node">
<title>xrandr</title>
<ellipse fill="none" stroke="black" cx="42.25" cy="-18" rx="42.49" ry="18"/>
<text text-anchor="middle" x="42.25" y="-14.3" font-family="Times,serif" font-size="14.00">xrandr</text>
</g>
<!-- xrandr&#45;&gt;xrandr -->
<g id="edge2" class="edge">
<title>xrandr&#45;&gt;xrandr</title>
<path fill="none" stroke="black" d="M14.53,-31.67C3.45,-42.66 12.68,-54 42.25,-54 63.49,-54 74.24,-48.14 74.49,-40.76"/>
<polygon fill="black" stroke="black" points="77.55,-39.06 69.96,-31.67 71.29,-42.18 77.55,-39.06"/>
</g>
<!-- KeepInMindNotes -->
<g id="node2" class="node">
<title>KeepInMindNotes</title>
<ellipse fill="none" stroke="black" cx="214.73" cy="-18" rx="94.48" ry="18"/>
<text text-anchor="middle" x="214.73" y="-14.3" font-family="Times,serif" font-size="14.00">KeepInMindNotes</text>
</g>
<!-- xrandr&#45;&gt;KeepInMindNotes -->
<g id="edge1" class="edge">
<title>xrandr&#45;&gt;KeepInMindNotes</title>
<path fill="none" stroke="black" d="M84.52,-18C92.46,-18 101.11,-18 110.05,-18"/>
<polygon fill="black" stroke="black" points="110.23,-21.5 120.23,-18 110.23,-14.5 110.23,-21.5"/>
</g>
</g>
</svg>
