<?xml version="1.0" encoding="UTF-8" standalone="no"?>
<!DOCTYPE svg PUBLIC "-//W3C//DTD SVG 1.1//EN"
 "http://www.w3.org/Graphics/SVG/1.1/DTD/svg11.dtd">
<!-- Generated by graphviz version 2.43.0 (0)
 -->
<!-- Title: %3 Pages: 1 -->
<svg width="806pt" height="1748pt"
 viewBox="0.00 0.00 806.24 1747.87" xmlns="http://www.w3.org/2000/svg" xmlns:xlink="http://www.w3.org/1999/xlink">
<g id="graph0" class="graph" transform="scale(1 1) rotate(0) translate(4 1743.87)">
<title>%3</title>
<polygon fill="white" stroke="transparent" points="-4,4 -4,-1743.87 802.24,-1743.87 802.24,4 -4,4"/>
<!-- color -->
<g id="node1" class="node">
<title>color</title>
<ellipse fill="none" stroke="black" cx="33.8" cy="-1127.87" rx="33.6" ry="18"/>
<text text-anchor="middle" x="33.8" y="-1124.17" font-family="Times,serif" font-size="14.00">color</text>
</g>
<!-- comment_background -->
<g id="node2" class="node">
<title>comment_background</title>
<ellipse fill="none" stroke="black" cx="216.03" cy="-1721.87" rx="112.38" ry="18"/>
<text text-anchor="middle" x="216.03" y="-1718.17" font-family="Times,serif" font-size="14.00">comment_background</text>
</g>
<!-- color&#45;&gt;comment_background -->
<g id="edge1" class="edge">
<title>color&#45;&gt;comment_background</title>
<path fill="none" stroke="black" d="M35.79,-1146.12C40.97,-1238.62 66.16,-1652.78 103.59,-1694.87 107.44,-1699.19 111.85,-1702.88 116.64,-1706.03"/>
<polygon fill="black" stroke="black" points="115.22,-1709.24 125.65,-1711.12 118.66,-1703.15 115.22,-1709.24"/>
</g>
<!-- KeepInMindNotes -->
<g id="node3" class="node">
<title>KeepInMindNotes</title>
<ellipse fill="none" stroke="black" cx="216.03" cy="-1667.87" rx="94.48" ry="18"/>
<text text-anchor="middle" x="216.03" y="-1664.17" font-family="Times,serif" font-size="14.00">KeepInMindNotes</text>
</g>
<!-- color&#45;&gt;KeepInMindNotes -->
<g id="edge2" class="edge">
<title>color&#45;&gt;KeepInMindNotes</title>
<path fill="none" stroke="black" d="M34.6,-1146.13C34.08,-1228.66 36.16,-1566.01 103.59,-1640.87 108.98,-1646.85 115.44,-1651.61 122.51,-1655.4"/>
<polygon fill="black" stroke="black" points="121.21,-1658.65 131.75,-1659.69 124.15,-1652.3 121.21,-1658.65"/>
</g>
<!-- terminal_colors -->
<g id="node4" class="node">
<title>terminal_colors</title>
<ellipse fill="none" stroke="black" cx="216.03" cy="-1613.87" rx="82.59" ry="18"/>
<text text-anchor="middle" x="216.03" y="-1610.17" font-family="Times,serif" font-size="14.00">terminal_colors</text>
</g>
<!-- color&#45;&gt;terminal_colors -->
<g id="edge3" class="edge">
<title>color&#45;&gt;terminal_colors</title>
<path fill="none" stroke="black" d="M34.91,-1146C35.79,-1222.83 43.09,-1520.73 103.59,-1586.87 110.5,-1594.42 119.12,-1600.02 128.49,-1604.16"/>
<polygon fill="black" stroke="black" points="127.48,-1607.52 138.07,-1607.83 129.98,-1600.98 127.48,-1607.52"/>
</g>
<!-- ProgressBar -->
<g id="node5" class="node">
<title>ProgressBar</title>
<ellipse fill="none" stroke="black" cx="216.03" cy="-1559.87" rx="68.79" ry="18"/>
<text text-anchor="middle" x="216.03" y="-1556.17" font-family="Times,serif" font-size="14.00">ProgressBar</text>
</g>
<!-- color&#45;&gt;ProgressBar -->
<g id="edge4" class="edge">
<title>color&#45;&gt;ProgressBar</title>
<path fill="none" stroke="black" d="M35.32,-1146.24C37.73,-1217.63 50.08,-1475.5 103.59,-1532.87 112.99,-1542.94 125.45,-1549.54 138.63,-1553.81"/>
<polygon fill="black" stroke="black" points="137.75,-1557.2 148.32,-1556.53 139.64,-1550.46 137.75,-1557.2"/>
</g>
<!-- EB&#45;79&#45;Istor\nicNotificari -->
<g id="node6" class="node">
<title>EB&#45;79&#45;Istor\nicNotificari</title>
<ellipse fill="none" stroke="black" cx="216.03" cy="-1496.87" rx="69.09" ry="26.74"/>
<text text-anchor="middle" x="216.03" y="-1500.67" font-family="Times,serif" font-size="14.00">EB&#45;79&#45;Istor</text>
<text text-anchor="middle" x="216.03" y="-1485.67" font-family="Times,serif" font-size="14.00">icNotificari</text>
</g>
<!-- color&#45;&gt;EB&#45;79&#45;Istor\nicNotificari -->
<g id="edge5" class="edge">
<title>color&#45;&gt;EB&#45;79&#45;Istor\nicNotificari</title>
<path fill="none" stroke="black" d="M36.19,-1146.24C41.31,-1208.97 61.03,-1413.4 103.59,-1460.87 113.47,-1471.88 126.72,-1479.54 140.64,-1484.86"/>
<polygon fill="black" stroke="black" points="139.76,-1488.26 150.35,-1488.19 142.02,-1481.63 139.76,-1488.26"/>
</g>
<!-- absolute_posit\nion_in_flexbox -->
<g id="node7" class="node">
<title>absolute_posit\nion_in_flexbox</title>
<ellipse fill="none" stroke="black" cx="216.03" cy="-1424.87" rx="84.29" ry="26.74"/>
<text text-anchor="middle" x="216.03" y="-1428.67" font-family="Times,serif" font-size="14.00">absolute_posit</text>
<text text-anchor="middle" x="216.03" y="-1413.67" font-family="Times,serif" font-size="14.00">ion_in_flexbox</text>
</g>
<!-- color&#45;&gt;absolute_posit\nion_in_flexbox -->
<g id="edge6" class="edge">
<title>color&#45;&gt;absolute_posit\nion_in_flexbox</title>
<path fill="none" stroke="black" d="M34.04,-1146.17C33.14,-1193.1 37.39,-1318.94 103.59,-1388.87 111.49,-1397.21 121.32,-1403.62 131.85,-1408.54"/>
<polygon fill="black" stroke="black" points="130.68,-1411.85 141.25,-1412.51 133.4,-1405.4 130.68,-1411.85"/>
</g>
<!-- tailwind -->
<g id="node8" class="node">
<title>tailwind</title>
<ellipse fill="none" stroke="black" cx="216.03" cy="-1361.87" rx="48.19" ry="18"/>
<text text-anchor="middle" x="216.03" y="-1358.17" font-family="Times,serif" font-size="14.00">tailwind</text>
</g>
<!-- color&#45;&gt;tailwind -->
<g id="edge7" class="edge">
<title>color&#45;&gt;tailwind</title>
<path fill="none" stroke="black" d="M35.23,-1145.89C37.22,-1186.09 47.86,-1283.59 103.59,-1334.87 118.31,-1348.41 138.65,-1355.49 157.92,-1359.08"/>
<polygon fill="black" stroke="black" points="157.44,-1362.55 167.87,-1360.66 158.54,-1355.63 157.44,-1362.55"/>
</g>
<!-- diagrama_testa\nre_vimdot_EB35 -->
<g id="node9" class="node">
<title>diagrama_testa\nre_vimdot_EB35</title>
<ellipse fill="none" stroke="black" cx="216.03" cy="-1298.87" rx="94.51" ry="26.74"/>
<text text-anchor="middle" x="216.03" y="-1302.67" font-family="Times,serif" font-size="14.00">diagrama_testa</text>
<text text-anchor="middle" x="216.03" y="-1287.67" font-family="Times,serif" font-size="14.00">re_vimdot_EB35</text>
</g>
<!-- color&#45;&gt;diagrama_testa\nre_vimdot_EB35 -->
<g id="edge8" class="edge">
<title>color&#45;&gt;diagrama_testa\nre_vimdot_EB35</title>
<path fill="none" stroke="black" d="M39.19,-1145.98C47.12,-1174.86 66.56,-1231.3 103.59,-1262.87 111.25,-1269.4 120.12,-1274.75 129.43,-1279.13"/>
<polygon fill="black" stroke="black" points="128.3,-1282.46 138.87,-1283.2 131.07,-1276.03 128.3,-1282.46"/>
</g>
<!-- stiluri_folosite -->
<g id="node10" class="node">
<title>stiluri_folosite</title>
<ellipse fill="none" stroke="black" cx="216.03" cy="-1235.87" rx="77.19" ry="18"/>
<text text-anchor="middle" x="216.03" y="-1232.17" font-family="Times,serif" font-size="14.00">stiluri_folosite</text>
</g>
<!-- color&#45;&gt;stiluri_folosite -->
<g id="edge9" class="edge">
<title>color&#45;&gt;stiluri_folosite</title>
<path fill="none" stroke="black" d="M44.87,-1145.25C56.59,-1163.87 77.68,-1192.9 103.59,-1208.87 114.29,-1215.46 126.49,-1220.44 138.8,-1224.21"/>
<polygon fill="black" stroke="black" points="138.09,-1227.65 148.67,-1226.98 139.98,-1220.91 138.09,-1227.65"/>
</g>
<!-- upgraduri -->
<g id="node11" class="node">
<title>upgraduri</title>
<ellipse fill="none" stroke="black" cx="216.03" cy="-1181.87" rx="57.39" ry="18"/>
<text text-anchor="middle" x="216.03" y="-1178.17" font-family="Times,serif" font-size="14.00">upgraduri</text>
</g>
<!-- color&#45;&gt;upgraduri -->
<g id="edge10" class="edge">
<title>color&#45;&gt;upgraduri</title>
<path fill="none" stroke="black" d="M60.63,-1138.97C73.41,-1144.22 89.16,-1150.31 103.59,-1154.87 121.05,-1160.38 140.34,-1165.42 157.9,-1169.61"/>
<polygon fill="black" stroke="black" points="157.48,-1173.1 168.01,-1171.97 159.07,-1166.29 157.48,-1173.1"/>
</g>
<!-- EB&#45;Email -->
<g id="node12" class="node">
<title>EB&#45;Email</title>
<ellipse fill="none" stroke="black" cx="216.03" cy="-1127.87" rx="53.89" ry="18"/>
<text text-anchor="middle" x="216.03" y="-1124.17" font-family="Times,serif" font-size="14.00">EB&#45;Email</text>
</g>
<!-- color&#45;&gt;EB&#45;Email -->
<g id="edge11" class="edge">
<title>color&#45;&gt;EB&#45;Email</title>
<path fill="none" stroke="black" d="M67.86,-1127.87C91.3,-1127.87 123.49,-1127.87 151.79,-1127.87"/>
<polygon fill="black" stroke="black" points="152.02,-1131.37 162.02,-1127.87 152.02,-1124.37 152.02,-1131.37"/>
</g>
<!-- alacrity_term\ninal_emulator -->
<g id="node13" class="node">
<title>alacrity_term\ninal_emulator</title>
<ellipse fill="none" stroke="black" cx="216.03" cy="-1064.87" rx="80.72" ry="26.74"/>
<text text-anchor="middle" x="216.03" y="-1068.67" font-family="Times,serif" font-size="14.00">alacrity_term</text>
<text text-anchor="middle" x="216.03" y="-1053.67" font-family="Times,serif" font-size="14.00">inal_emulator</text>
</g>
<!-- color&#45;&gt;alacrity_term\ninal_emulator -->
<g id="edge12" class="edge">
<title>color&#45;&gt;alacrity_term\ninal_emulator</title>
<path fill="none" stroke="black" d="M61.12,-1117.1C73.87,-1112 89.46,-1105.92 103.59,-1100.87 117.44,-1095.92 132.35,-1090.9 146.63,-1086.23"/>
<polygon fill="black" stroke="black" points="147.96,-1089.48 156.39,-1083.07 145.8,-1082.82 147.96,-1089.48"/>
</g>
<!-- vimwiki -->
<g id="node14" class="node">
<title>vimwiki</title>
<ellipse fill="none" stroke="black" cx="513.96" cy="-1117.87" rx="46.59" ry="18"/>
<text text-anchor="middle" x="513.96" y="-1114.17" font-family="Times,serif" font-size="14.00">vimwiki</text>
</g>
<!-- color&#45;&gt;vimwiki -->
<g id="edge13" class="edge">
<title>color&#45;&gt;vimwiki</title>
<path fill="none" stroke="black" d="M41.19,-1109.91C50.67,-1086.33 70.95,-1045.94 103.59,-1028.87 192.17,-982.56 240.94,-980.63 328.47,-1028.87 354.72,-1043.33 339.91,-1068.71 364.47,-1085.87 391.35,-1104.65 427.15,-1112.74 456.86,-1116.09"/>
<polygon fill="black" stroke="black" points="456.8,-1119.6 467.09,-1117.08 457.48,-1112.63 456.8,-1119.6"/>
</g>
<!-- EB&#45;68 -->
<g id="node15" class="node">
<title>EB&#45;68</title>
<ellipse fill="none" stroke="black" cx="216.03" cy="-871.87" rx="38.99" ry="18"/>
<text text-anchor="middle" x="216.03" y="-868.17" font-family="Times,serif" font-size="14.00">EB&#45;68</text>
</g>
<!-- color&#45;&gt;EB&#45;68 -->
<g id="edge14" class="edge">
<title>color&#45;&gt;EB&#45;68</title>
<path fill="none" stroke="black" d="M34.86,-1109.86C36.02,-1067.63 44.96,-961.44 103.59,-903.87 120.4,-887.37 145.11,-879.27 167,-875.34"/>
<polygon fill="black" stroke="black" points="167.8,-878.76 177.14,-873.76 166.72,-871.84 167.8,-878.76"/>
</g>
<!-- Aplicatie_Avocati -->
<g id="node16" class="node">
<title>Aplicatie_Avocati</title>
<ellipse fill="none" stroke="black" cx="216.03" cy="-593.87" rx="89.88" ry="18"/>
<text text-anchor="middle" x="216.03" y="-590.17" font-family="Times,serif" font-size="14.00">Aplicatie_Avocati</text>
</g>
<!-- color&#45;&gt;Aplicatie_Avocati -->
<g id="edge15" class="edge">
<title>color&#45;&gt;Aplicatie_Avocati</title>
<path fill="none" stroke="black" d="M37.98,-1110C46.28,-1064.84 70.27,-942.75 103.59,-844.87 132.15,-760.98 177.99,-666.6 200.95,-621.18"/>
<polygon fill="black" stroke="black" points="204.21,-622.49 205.63,-611.99 197.97,-619.32 204.21,-622.49"/>
</g>
<!-- bash -->
<g id="node17" class="node">
<title>bash</title>
<ellipse fill="none" stroke="black" cx="216.03" cy="-539.87" rx="32.49" ry="18"/>
<text text-anchor="middle" x="216.03" y="-536.17" font-family="Times,serif" font-size="14.00">bash</text>
</g>
<!-- color&#45;&gt;bash -->
<g id="edge16" class="edge">
<title>color&#45;&gt;bash</title>
<path fill="none" stroke="black" d="M35.8,-1109.81C41.05,-1018.29 66.52,-608.5 103.59,-566.87 120.84,-547.51 149.37,-540.86 173.25,-539"/>
<polygon fill="black" stroke="black" points="173.69,-542.48 183.5,-538.46 173.33,-535.49 173.69,-542.48"/>
</g>
<!-- vim -->
<g id="node18" class="node">
<title>vim</title>
<ellipse fill="none" stroke="black" cx="216.03" cy="-963.87" rx="27.9" ry="18"/>
<text text-anchor="middle" x="216.03" y="-960.17" font-family="Times,serif" font-size="14.00">vim</text>
</g>
<!-- color&#45;&gt;vim -->
<g id="edge17" class="edge">
<title>color&#45;&gt;vim</title>
<path fill="none" stroke="black" d="M39.19,-1110.02C47.13,-1081.58 66.57,-1026.12 103.59,-995.87 124.64,-978.68 154.49,-970.72 177.99,-967.03"/>
<polygon fill="black" stroke="black" points="178.54,-970.49 187.97,-965.67 177.58,-963.56 178.54,-970.49"/>
</g>
<!-- dark&#45;theme -->
<g id="node19" class="node">
<title>dark&#45;theme</title>
<ellipse fill="none" stroke="black" cx="216.03" cy="-485.87" rx="63.89" ry="18"/>
<text text-anchor="middle" x="216.03" y="-482.17" font-family="Times,serif" font-size="14.00">dark&#45;theme</text>
</g>
<!-- color&#45;&gt;dark&#45;theme -->
<g id="edge18" class="edge">
<title>color&#45;&gt;dark&#45;theme</title>
<path fill="none" stroke="black" d="M35.6,-1109.7C40.07,-1012.73 63.02,-558.92 103.59,-512.87 113.74,-501.35 127.89,-494.32 142.7,-490.12"/>
<polygon fill="black" stroke="black" points="143.6,-493.51 152.5,-487.75 141.95,-486.7 143.6,-493.51"/>
</g>
<!-- EB&#45;72 -->
<g id="node20" class="node">
<title>EB&#45;72</title>
<ellipse fill="none" stroke="black" cx="216.03" cy="-431.87" rx="38.99" ry="18"/>
<text text-anchor="middle" x="216.03" y="-428.17" font-family="Times,serif" font-size="14.00">EB&#45;72</text>
</g>
<!-- color&#45;&gt;EB&#45;72 -->
<g id="edge19" class="edge">
<title>color&#45;&gt;EB&#45;72</title>
<path fill="none" stroke="black" d="M35.43,-1109.8C39.14,-1008.07 59.49,-509.39 103.59,-458.87 119.21,-440.99 144.45,-433.91 166.97,-431.45"/>
<polygon fill="black" stroke="black" points="167.4,-434.92 177.08,-430.62 166.83,-427.95 167.4,-434.92"/>
</g>
<!-- vim_colorshemes -->
<g id="node21" class="node">
<title>vim_colorshemes</title>
<ellipse fill="none" stroke="black" cx="513.96" cy="-917.87" rx="90.18" ry="18"/>
<text text-anchor="middle" x="513.96" y="-914.17" font-family="Times,serif" font-size="14.00">vim_colorshemes</text>
</g>
<!-- color&#45;&gt;vim_colorshemes -->
<g id="edge20" class="edge">
<title>color&#45;&gt;vim_colorshemes</title>
<path fill="none" stroke="black" d="M35.12,-1109.87C36.89,-1070.83 47.16,-978.52 103.59,-936.87 151.91,-901.21 314.5,-904.32 419.65,-910.57"/>
<polygon fill="black" stroke="black" points="419.45,-914.07 429.65,-911.19 419.88,-907.08 419.45,-914.07"/>
</g>
<!-- documentat\nie_sapunuri -->
<g id="node22" class="node">
<title>documentat\nie_sapunuri</title>
<ellipse fill="none" stroke="black" cx="216.03" cy="-368.87" rx="71.34" ry="26.74"/>
<text text-anchor="middle" x="216.03" y="-372.67" font-family="Times,serif" font-size="14.00">documentat</text>
<text text-anchor="middle" x="216.03" y="-357.67" font-family="Times,serif" font-size="14.00">ie_sapunuri</text>
</g>
<!-- color&#45;&gt;documentat\nie_sapunuri -->
<g id="edge21" class="edge">
<title>color&#45;&gt;documentat\nie_sapunuri</title>
<path fill="none" stroke="black" d="M35.34,-1109.81C38.71,-1003.47 58.05,-461.58 103.59,-404.87 112.51,-393.77 124.88,-386.05 138.15,-380.69"/>
<polygon fill="black" stroke="black" points="139.7,-383.85 147.94,-377.19 137.34,-377.26 139.7,-383.85"/>
</g>
<!-- Finalizare_task -->
<g id="node23" class="node">
<title>Finalizare_task</title>
<ellipse fill="none" stroke="black" cx="513.96" cy="-1496.87" rx="81.49" ry="18"/>
<text text-anchor="middle" x="513.96" y="-1493.17" font-family="Times,serif" font-size="14.00">Finalizare_task</text>
</g>
<!-- EB&#45;79&#45;Istor\nicNotificari&#45;&gt;Finalizare_task -->
<g id="edge22" class="edge">
<title>EB&#45;79&#45;Istor\nicNotificari&#45;&gt;Finalizare_task</title>
<path fill="none" stroke="black" d="M285.67,-1496.87C326.38,-1496.87 378.46,-1496.87 422.5,-1496.87"/>
<polygon fill="black" stroke="black" points="422.63,-1500.37 432.63,-1496.87 422.63,-1493.37 422.63,-1500.37"/>
</g>
<!-- Links -->
<g id="node24" class="node">
<title>Links</title>
<ellipse fill="none" stroke="black" cx="513.96" cy="-1171.87" rx="36" ry="18"/>
<text text-anchor="middle" x="513.96" y="-1168.17" font-family="Times,serif" font-size="14.00">Links</text>
</g>
<!-- alacrity_term\ninal_emulator&#45;&gt;Links -->
<g id="edge23" class="edge">
<title>alacrity_term\ninal_emulator&#45;&gt;Links</title>
<path fill="none" stroke="black" d="M283.87,-1079.62C299.32,-1084.84 315.12,-1091.76 328.47,-1100.87 349.35,-1115.11 342.71,-1132.04 364.47,-1144.87 395.91,-1163.39 437.08,-1169.75 468.1,-1171.7"/>
<polygon fill="black" stroke="black" points="468.04,-1175.2 478.2,-1172.21 468.39,-1168.21 468.04,-1175.2"/>
</g>
<!-- Install -->
<g id="node25" class="node">
<title>Install</title>
<ellipse fill="none" stroke="black" cx="748.84" cy="-1175.87" rx="40.09" ry="18"/>
<text text-anchor="middle" x="748.84" y="-1172.17" font-family="Times,serif" font-size="14.00">Install</text>
</g>
<!-- vimwiki&#45;&gt;Install -->
<g id="edge24" class="edge">
<title>vimwiki&#45;&gt;Install</title>
<path fill="none" stroke="black" d="M558.28,-1123.73C588.14,-1128.26 628.56,-1135.37 663.45,-1144.87 678.62,-1149 694.92,-1154.68 709.11,-1160.06"/>
<polygon fill="black" stroke="black" points="707.97,-1163.37 718.56,-1163.7 710.49,-1156.84 707.97,-1163.37"/>
</g>
<!-- Use -->
<g id="node26" class="node">
<title>Use</title>
<ellipse fill="none" stroke="black" cx="748.84" cy="-1121.87" rx="28.7" ry="18"/>
<text text-anchor="middle" x="748.84" y="-1118.17" font-family="Times,serif" font-size="14.00">Use</text>
</g>
<!-- vimwiki&#45;&gt;Use -->
<g id="edge25" class="edge">
<title>vimwiki&#45;&gt;Use</title>
<path fill="none" stroke="black" d="M560.97,-1118.66C604.63,-1119.41 669.44,-1120.52 710.13,-1121.22"/>
<polygon fill="black" stroke="black" points="710.12,-1124.72 720.17,-1121.39 710.24,-1117.72 710.12,-1124.72"/>
</g>
<!-- vimgrep -->
<g id="node27" class="node">
<title>vimgrep</title>
<ellipse fill="none" stroke="black" cx="748.84" cy="-1067.87" rx="49.29" ry="18"/>
<text text-anchor="middle" x="748.84" y="-1064.17" font-family="Times,serif" font-size="14.00">vimgrep</text>
</g>
<!-- vimwiki&#45;&gt;vimgrep -->
<g id="edge26" class="edge">
<title>vimwiki&#45;&gt;vimgrep</title>
<path fill="none" stroke="black" d="M555.26,-1109.22C594.19,-1100.86 653.34,-1088.16 695.81,-1079.04"/>
<polygon fill="black" stroke="black" points="696.64,-1082.44 705.68,-1076.92 695.17,-1075.6 696.64,-1082.44"/>
</g>
<!-- periodic_check -->
<g id="node28" class="node">
<title>periodic_check</title>
<ellipse fill="none" stroke="black" cx="513.96" cy="-863.87" rx="79.09" ry="18"/>
<text text-anchor="middle" x="513.96" y="-860.17" font-family="Times,serif" font-size="14.00">periodic_check</text>
</g>
<!-- Aplicatie_Avocati&#45;&gt;periodic_check -->
<g id="edge27" class="edge">
<title>Aplicatie_Avocati&#45;&gt;periodic_check</title>
<path fill="none" stroke="black" d="M222.33,-612.13C236.72,-658.2 281.14,-779.53 364.47,-836.87 382.18,-849.05 403.78,-856.2 424.96,-860.29"/>
<polygon fill="black" stroke="black" points="424.53,-863.76 434.97,-862.01 425.71,-856.86 424.53,-863.76"/>
</g>
<!-- sending_emails_from_google -->
<g id="node29" class="node">
<title>sending_emails_from_google</title>
<ellipse fill="none" stroke="black" cx="513.96" cy="-809.87" rx="143.77" ry="18"/>
<text text-anchor="middle" x="513.96" y="-806.17" font-family="Times,serif" font-size="14.00">sending_emails_from_google</text>
</g>
<!-- Aplicatie_Avocati&#45;&gt;sending_emails_from_google -->
<g id="edge28" class="edge">
<title>Aplicatie_Avocati&#45;&gt;sending_emails_from_google</title>
<path fill="none" stroke="black" d="M225.45,-612.01C244.33,-650.48 293.97,-740.22 364.47,-782.87 372.88,-787.96 382.01,-792.13 391.47,-795.55"/>
<polygon fill="black" stroke="black" points="390.44,-798.9 401.03,-798.73 392.64,-792.26 390.44,-798.9"/>
</g>
<!-- mongo_database_with_python -->
<g id="node30" class="node">
<title>mongo_database_with_python</title>
<ellipse fill="none" stroke="black" cx="513.96" cy="-755.87" rx="149.47" ry="18"/>
<text text-anchor="middle" x="513.96" y="-752.17" font-family="Times,serif" font-size="14.00">mongo_database_with_python</text>
</g>
<!-- Aplicatie_Avocati&#45;&gt;mongo_database_with_python -->
<g id="edge29" class="edge">
<title>Aplicatie_Avocati&#45;&gt;mongo_database_with_python</title>
<path fill="none" stroke="black" d="M230.72,-611.72C254.46,-641.28 306.34,-700.02 364.47,-728.87 374,-733.6 384.23,-737.5 394.72,-740.73"/>
<polygon fill="black" stroke="black" points="393.82,-744.11 404.4,-743.51 395.75,-737.39 393.82,-744.11"/>
</g>
<!-- scripting_for_mongo -->
<g id="node31" class="node">
<title>scripting_for_mongo</title>
<ellipse fill="none" stroke="black" cx="513.96" cy="-701.87" rx="105.08" ry="18"/>
<text text-anchor="middle" x="513.96" y="-698.17" font-family="Times,serif" font-size="14.00">scripting_for_mongo</text>
</g>
<!-- Aplicatie_Avocati&#45;&gt;scripting_for_mongo -->
<g id="edge30" class="edge">
<title>Aplicatie_Avocati&#45;&gt;scripting_for_mongo</title>
<path fill="none" stroke="black" d="M242.46,-611.19C270.94,-629.76 319.06,-658.75 364.47,-674.87 381.45,-680.9 400.03,-685.64 418.11,-689.34"/>
<polygon fill="black" stroke="black" points="417.6,-692.81 428.09,-691.3 418.95,-685.94 417.6,-692.81"/>
</g>
<!-- SOAP_examples -->
<g id="node32" class="node">
<title>SOAP_examples</title>
<ellipse fill="none" stroke="black" cx="513.96" cy="-647.87" rx="85.29" ry="18"/>
<text text-anchor="middle" x="513.96" y="-644.17" font-family="Times,serif" font-size="14.00">SOAP_examples</text>
</g>
<!-- Aplicatie_Avocati&#45;&gt;SOAP_examples -->
<g id="edge31" class="edge">
<title>Aplicatie_Avocati&#45;&gt;SOAP_examples</title>
<path fill="none" stroke="black" d="M282.72,-605.92C308.24,-610.59 337.72,-615.99 364.47,-620.87 388.61,-625.27 414.95,-630.07 438.66,-634.38"/>
<polygon fill="black" stroke="black" points="438.18,-637.85 448.64,-636.19 439.43,-630.96 438.18,-637.85"/>
</g>
<!-- docker_registry -->
<g id="node33" class="node">
<title>docker_registry</title>
<ellipse fill="none" stroke="black" cx="513.96" cy="-593.87" rx="83.39" ry="18"/>
<text text-anchor="middle" x="513.96" y="-590.17" font-family="Times,serif" font-size="14.00">docker_registry</text>
</g>
<!-- Aplicatie_Avocati&#45;&gt;docker_registry -->
<g id="edge32" class="edge">
<title>Aplicatie_Avocati&#45;&gt;docker_registry</title>
<path fill="none" stroke="black" d="M305.82,-593.87C341.93,-593.87 383.66,-593.87 420.16,-593.87"/>
<polygon fill="black" stroke="black" points="420.31,-597.37 430.31,-593.87 420.31,-590.37 420.31,-597.37"/>
</g>
<!-- use_own_registry -->
<g id="node34" class="node">
<title>use_own_registry</title>
<ellipse fill="none" stroke="black" cx="513.96" cy="-539.87" rx="91.78" ry="18"/>
<text text-anchor="middle" x="513.96" y="-536.17" font-family="Times,serif" font-size="14.00">use_own_registry</text>
</g>
<!-- Aplicatie_Avocati&#45;&gt;use_own_registry -->
<g id="edge33" class="edge">
<title>Aplicatie_Avocati&#45;&gt;use_own_registry</title>
<path fill="none" stroke="black" d="M282.72,-581.82C308.24,-577.15 337.72,-571.75 364.47,-566.87 387.71,-562.63 413,-558.03 436.01,-553.84"/>
<polygon fill="black" stroke="black" points="436.85,-557.25 446.06,-552.02 435.6,-550.36 436.85,-557.25"/>
</g>
<!-- volumes\nURL -->
<g id="node35" class="node">
<title>volumes\nURL</title>
<ellipse fill="#d1d1d1" stroke="#d1d1d1" cx="513.96" cy="-476.87" rx="53.98" ry="26.74"/>
<text text-anchor="middle" x="513.96" y="-480.67" font-family="Times,serif" font-size="14.00">volumes</text>
<text text-anchor="middle" x="513.96" y="-465.67" font-family="Times,serif" font-size="14.00">URL</text>
</g>
<!-- Aplicatie_Avocati&#45;&gt;volumes\nURL -->
<g id="edge34" class="edge">
<title>Aplicatie_Avocati&#45;&gt;volumes\nURL</title>
<path fill="none" stroke="black" d="M291.41,-584.04C304.51,-580.09 317.46,-574.57 328.47,-566.87 352.11,-550.34 340.84,-529.4 364.47,-512.87 389.45,-495.4 421.91,-486.36 450.11,-481.7"/>
<polygon fill="black" stroke="black" points="450.92,-485.12 460.29,-480.18 449.88,-478.2 450.92,-485.12"/>
</g>
<!-- testare_trimitere_mailuri -->
<g id="node36" class="node">
<title>testare_trimitere_mailuri</title>
<ellipse fill="none" stroke="black" cx="513.96" cy="-413.87" rx="128.08" ry="18"/>
<text text-anchor="middle" x="513.96" y="-410.17" font-family="Times,serif" font-size="14.00">testare_trimitere_mailuri</text>
</g>
<!-- Aplicatie_Avocati&#45;&gt;testare_trimitere_mailuri -->
<g id="edge35" class="edge">
<title>Aplicatie_Avocati&#45;&gt;testare_trimitere_mailuri</title>
<path fill="none" stroke="black" d="M296.41,-585.68C308.26,-581.51 319.5,-575.49 328.47,-566.87 370.48,-526.53 321.32,-479.98 364.47,-440.87 371.46,-434.54 379.42,-429.45 387.93,-425.39"/>
<polygon fill="black" stroke="black" points="389.54,-428.51 397.37,-421.37 386.8,-422.07 389.54,-428.51"/>
</g>
<!-- certbot -->
<g id="node37" class="node">
<title>certbot</title>
<ellipse fill="none" stroke="black" cx="513.96" cy="-359.87" rx="44.39" ry="18"/>
<text text-anchor="middle" x="513.96" y="-356.17" font-family="Times,serif" font-size="14.00">certbot</text>
</g>
<!-- Aplicatie_Avocati&#45;&gt;certbot -->
<g id="edge36" class="edge">
<title>Aplicatie_Avocati&#45;&gt;certbot</title>
<path fill="none" stroke="black" d="M297.3,-586.19C308.98,-581.94 319.92,-575.77 328.47,-566.87 384.99,-508.03 306.28,-444.05 364.47,-386.87 389.43,-362.35 428.76,-356.06 460.67,-355.66"/>
<polygon fill="black" stroke="black" points="460.72,-359.16 470.75,-355.72 460.77,-352.16 460.72,-359.16"/>
</g>
<!-- http_calls_to_flask -->
<g id="node38" class="node">
<title>http_calls_to_flask</title>
<ellipse fill="none" stroke="black" cx="513.96" cy="-305.87" rx="94.78" ry="18"/>
<text text-anchor="middle" x="513.96" y="-302.17" font-family="Times,serif" font-size="14.00">http_calls_to_flask</text>
</g>
<!-- Aplicatie_Avocati&#45;&gt;http_calls_to_flask -->
<g id="edge37" class="edge">
<title>Aplicatie_Avocati&#45;&gt;http_calls_to_flask</title>
<path fill="none" stroke="black" d="M297.93,-586.41C309.46,-582.13 320.19,-575.89 328.47,-566.87 399.65,-489.37 291.09,-408.28 364.47,-332.87 376.54,-320.47 392.26,-312.67 408.95,-307.92"/>
<polygon fill="black" stroke="black" points="410,-311.27 418.87,-305.47 408.32,-304.47 410,-311.27"/>
</g>
<!-- renew_certbot -->
<g id="node39" class="node">
<title>renew_certbot</title>
<ellipse fill="none" stroke="black" cx="513.96" cy="-251.87" rx="77.19" ry="18"/>
<text text-anchor="middle" x="513.96" y="-248.17" font-family="Times,serif" font-size="14.00">renew_certbot</text>
</g>
<!-- Aplicatie_Avocati&#45;&gt;renew_certbot -->
<g id="edge38" class="edge">
<title>Aplicatie_Avocati&#45;&gt;renew_certbot</title>
<path fill="none" stroke="black" d="M298.15,-586.61C309.65,-582.31 320.32,-576 328.47,-566.87 414.37,-470.64 275.83,-372.58 364.47,-278.87 380.94,-261.47 404.58,-253.05 428.18,-249.42"/>
<polygon fill="black" stroke="black" points="428.79,-252.87 438.27,-248.15 427.91,-245.93 428.79,-252.87"/>
</g>
<!-- acmesh -->
<g id="node40" class="node">
<title>acmesh</title>
<ellipse fill="none" stroke="black" cx="513.96" cy="-197.87" rx="46.29" ry="18"/>
<text text-anchor="middle" x="513.96" y="-194.17" font-family="Times,serif" font-size="14.00">acmesh</text>
</g>
<!-- Aplicatie_Avocati&#45;&gt;acmesh -->
<g id="edge39" class="edge">
<title>Aplicatie_Avocati&#45;&gt;acmesh</title>
<path fill="none" stroke="black" d="M298.59,-586.64C309.96,-582.32 320.48,-576.01 328.47,-566.87 429.14,-451.86 260.53,-336.92 364.47,-224.87 388.11,-199.39 427.12,-193.07 459.22,-192.89"/>
<polygon fill="black" stroke="black" points="459.33,-196.39 469.37,-193.03 459.42,-189.39 459.33,-196.39"/>
</g>
<!-- backup_database -->
<g id="node41" class="node">
<title>backup_database</title>
<ellipse fill="none" stroke="black" cx="513.96" cy="-143.87" rx="90.18" ry="18"/>
<text text-anchor="middle" x="513.96" y="-140.17" font-family="Times,serif" font-size="14.00">backup_database</text>
</g>
<!-- Aplicatie_Avocati&#45;&gt;backup_database -->
<g id="edge40" class="edge">
<title>Aplicatie_Avocati&#45;&gt;backup_database</title>
<path fill="none" stroke="black" d="M298.7,-586.74C310.06,-582.41 320.54,-576.06 328.47,-566.87 386.2,-499.97 304.84,-236.08 364.47,-170.87 377.5,-156.63 395.32,-148.35 414.1,-143.77"/>
<polygon fill="black" stroke="black" points="414.92,-147.18 423.99,-141.71 413.49,-140.33 414.92,-147.18"/>
</g>
<!-- Evenimente_google_analytics -->
<g id="node42" class="node">
<title>Evenimente_google_analytics</title>
<ellipse fill="none" stroke="black" cx="513.96" cy="-89.87" rx="147.57" ry="18"/>
<text text-anchor="middle" x="513.96" y="-86.17" font-family="Times,serif" font-size="14.00">Evenimente_google_analytics</text>
</g>
<!-- Aplicatie_Avocati&#45;&gt;Evenimente_google_analytics -->
<g id="edge41" class="edge">
<title>Aplicatie_Avocati&#45;&gt;Evenimente_google_analytics</title>
<path fill="none" stroke="black" d="M298.79,-586.82C310.14,-582.47 320.59,-576.11 328.47,-566.87 393.6,-490.56 297.17,-191.26 364.47,-116.87 368.7,-112.2 373.43,-108.17 378.55,-104.7"/>
<polygon fill="black" stroke="black" points="380.7,-107.5 387.51,-99.38 377.12,-101.48 380.7,-107.5"/>
</g>
<!-- link\nURL -->
<g id="node43" class="node">
<title>link\nURL</title>
<ellipse fill="#d1d1d1" stroke="#d1d1d1" cx="513.96" cy="-26.87" rx="33.88" ry="26.74"/>
<text text-anchor="middle" x="513.96" y="-30.67" font-family="Times,serif" font-size="14.00">link</text>
<text text-anchor="middle" x="513.96" y="-15.67" font-family="Times,serif" font-size="14.00">URL</text>
</g>
<!-- bash&#45;&gt;link\nURL -->
<g id="edge42" class="edge">
<title>bash&#45;&gt;link\nURL</title>
<path fill="none" stroke="black" d="M248.56,-541.5C274.16,-540.95 309.09,-535.58 328.47,-512.87 393.6,-436.56 299.36,-139.18 364.47,-62.87 389.99,-32.97 435.71,-25.62 469.7,-24.74"/>
<polygon fill="black" stroke="black" points="469.87,-28.24 479.84,-24.65 469.81,-21.24 469.87,-28.24"/>
</g>
<!-- vim&#45;&gt;vimwiki -->
<g id="edge44" class="edge">
<title>vim&#45;&gt;vimwiki</title>
<path fill="none" stroke="black" d="M244.1,-965.06C268.89,-967.54 305.18,-974.81 328.47,-995.87 360.43,-1024.76 331.56,-1058.07 364.47,-1085.87 390,-1107.42 426.62,-1115.48 457.11,-1118.12"/>
<polygon fill="black" stroke="black" points="456.97,-1121.62 467.19,-1118.82 457.45,-1114.64 456.97,-1121.62"/>
</g>
<!-- vim&#45;&gt;vim_colorshemes -->
<g id="edge47" class="edge">
<title>vim&#45;&gt;vim_colorshemes</title>
<path fill="none" stroke="black" d="M243.3,-959.79C285.26,-953.27 369.11,-940.23 432.23,-930.42"/>
<polygon fill="black" stroke="black" points="432.83,-933.87 442.17,-928.87 431.76,-926.95 432.83,-933.87"/>
</g>
<!-- vim&#45;&gt;vimgrep -->
<g id="edge46" class="edge">
<title>vim&#45;&gt;vimgrep</title>
<path fill="none" stroke="black" d="M244.34,-963.93C268.62,-965.3 303.97,-970.65 328.47,-988.87 354.66,-1008.35 336.63,-1035.85 364.47,-1052.87 417.47,-1085.27 596.73,-1078.42 690.15,-1072.32"/>
<polygon fill="black" stroke="black" points="690.54,-1075.8 700.28,-1071.64 690.07,-1068.81 690.54,-1075.8"/>
</g>
<!-- netrw -->
<g id="node44" class="node">
<title>netrw</title>
<ellipse fill="none" stroke="black" cx="513.96" cy="-1025.87" rx="38.19" ry="18"/>
<text text-anchor="middle" x="513.96" y="-1022.17" font-family="Times,serif" font-size="14.00">netrw</text>
</g>
<!-- vim&#45;&gt;netrw -->
<g id="edge43" class="edge">
<title>vim&#45;&gt;netrw</title>
<path fill="none" stroke="black" d="M242.25,-970.29C271.53,-977.64 321.34,-989.84 364.47,-998.87 398.88,-1006.08 438.02,-1013.15 467.47,-1018.24"/>
<polygon fill="black" stroke="black" points="467.01,-1021.72 477.46,-1019.96 468.19,-1014.82 467.01,-1021.72"/>
</g>
<!-- help -->
<g id="node45" class="node">
<title>help</title>
<ellipse fill="none" stroke="black" cx="513.96" cy="-971.87" rx="30.59" ry="18"/>
<text text-anchor="middle" x="513.96" y="-968.17" font-family="Times,serif" font-size="14.00">help</text>
</g>
<!-- vim&#45;&gt;help -->
<g id="edge45" class="edge">
<title>vim&#45;&gt;help</title>
<path fill="none" stroke="black" d="M244.08,-964.6C296.41,-966.02 411.75,-969.13 472.97,-970.79"/>
<polygon fill="black" stroke="black" points="472.94,-974.29 483.03,-971.06 473.13,-967.29 472.94,-974.29"/>
</g>
</g>
</svg>
